<svg width="349" height="64" viewBox="0 0 349 64" fill="none" xmlns="http://www.w3.org/2000/svg">
<path d="M24.0156 44.6758C21.3438 48.0273 17.2539 49.7031 11.7461 49.7031C8.79297 49.7031 6.22656 48.6367 4.04688 46.5039C1.89062 44.3477 0.8125 41.6758 0.8125 38.4883C0.8125 34.668 2.47656 31.4453 5.80469 28.8203C9.15625 26.1719 13.4219 24.8477 18.6016 24.8477C20.0078 24.8477 21.6016 25.1523 23.3828 25.7617C23.3828 19.668 20.6641 16.6211 15.2266 16.6211C11.0547 16.6211 7.84375 17.7461 5.59375 19.9961L2.78125 14.4062C4.04688 13.375 5.79297 12.4961 8.01953 11.7695C10.2695 11.0195 12.4141 10.6445 14.4531 10.6445C19.9141 10.6445 23.875 11.8867 26.3359 14.3711C28.8203 16.8555 30.0625 20.8047 30.0625 26.2188V39.7188C30.0625 43.0234 31.0469 45.2266 33.0156 46.3281V49.668C30.2969 49.668 28.2578 49.2812 26.8984 48.5078C25.5625 47.7344 24.6016 46.457 24.0156 44.6758ZM23.3828 30.5078C21.2734 30.0391 19.7969 29.8047 18.9531 29.8047C15.5781 29.8047 12.8242 30.6719 10.6914 32.4062C8.55859 34.1406 7.49219 36.1914 7.49219 38.5586C7.49219 42.4727 9.80078 44.4297 14.418 44.4297C17.793 44.4297 20.7812 42.8242 23.3828 39.6133V30.5078ZM46.9023 11.3477V35.3594C46.9023 41.1719 49.4219 44.0781 54.4609 44.0781C56.6641 44.0781 58.6797 43.4453 60.5078 42.1797C62.3359 40.9141 63.543 39.4492 64.1289 37.7852V11.3477H70.8086V49H64.1289V43.7969C63.3789 45.2734 61.8672 46.6328 59.5938 47.875C57.3438 49.0938 55.1406 49.7031 52.9844 49.7031C48.8594 49.7031 45.6953 48.5195 43.4922 46.1523C41.3125 43.7852 40.2227 40.4219 40.2227 36.0625V11.3477H46.9023ZM82.3398 16.6211H77.9805V11.3477H82.3398V3.47266L89.0195 0.90625V11.3477H99.3555V16.6211H89.0195V35.3242C89.0195 38.4883 89.5469 40.7383 90.6016 42.0742C91.6797 43.4102 93.4023 44.0781 95.7695 44.0781C97.4805 44.0781 99.25 43.6445 101.078 42.7773L102.062 48.6484C99.2969 49.3516 96.2617 49.7031 92.957 49.7031C89.9805 49.7031 87.4609 48.6016 85.3984 46.3984C83.3594 44.1719 82.3398 41.3711 82.3398 37.9961V16.6211ZM106.035 30.0859C106.035 24.2734 107.594 19.5859 110.711 16.0234C113.852 12.4375 117.977 10.6445 123.086 10.6445C128.477 10.6445 132.66 12.3672 135.637 15.8125C138.613 19.2344 140.102 23.9922 140.102 30.0859C140.102 36.1562 138.578 40.9492 135.531 44.4648C132.484 47.957 128.336 49.7031 123.086 49.7031C117.719 49.7031 113.535 47.9336 110.535 44.3945C107.535 40.8555 106.035 36.0859 106.035 30.0859ZM113.066 30.0859C113.066 39.5312 116.406 44.2539 123.086 44.2539C126.203 44.2539 128.641 42.9883 130.398 40.457C132.18 37.9258 133.07 34.4688 133.07 30.0859C133.07 20.7578 129.742 16.0938 123.086 16.0938C120.039 16.0938 117.602 17.3359 115.773 19.8203C113.969 22.3047 113.066 25.7266 113.066 30.0859Z" fill="#FF8C00"/>
<path d="M145.797 59.3008L149.418 53.957C153.309 56.5586 156.895 57.8594 160.176 57.8594C163.199 57.8594 165.578 57.332 167.312 56.2773C169.07 55.2461 169.949 53.957 169.949 52.4102C169.949 49.3633 167.746 47.8398 163.34 47.8398C162.59 47.8398 161.23 48.0273 159.262 48.4023C157.293 48.7773 155.758 48.9648 154.656 48.9648C149.312 48.9648 146.641 46.9492 146.641 42.918C146.641 41.6758 147.262 40.5508 148.504 39.543C149.77 38.5352 151.328 37.8086 153.18 37.3633C147.883 34.8789 145.234 30.5664 145.234 24.4258C145.234 20.4883 146.605 17.207 149.348 14.582C152.09 11.957 155.477 10.6445 159.508 10.6445C163.211 10.6445 166.105 11.4063 168.191 12.9297L171.531 8.92188L175.891 13.0352L171.883 16.0586C173.594 18.2852 174.449 21.1914 174.449 24.7773C174.449 28.5742 173.266 31.7617 170.898 34.3398C168.531 36.918 165.426 38.3945 161.582 38.7695L156.062 39.332C155.406 39.4023 154.527 39.6602 153.426 40.1055C152.324 40.5273 151.773 41.0898 151.773 41.793C151.773 42.7539 152.922 43.2344 155.219 43.2344C156.227 43.2344 157.797 43.0586 159.93 42.707C162.062 42.332 163.645 42.1445 164.676 42.1445C168.379 42.1445 171.262 43.0352 173.324 44.8164C175.41 46.5742 176.453 49.0234 176.453 52.1641C176.453 55.6328 174.895 58.4336 171.777 60.5664C168.684 62.6992 164.758 63.7656 160 63.7656C157.562 63.7656 154.996 63.332 152.301 62.4648C149.605 61.5977 147.438 60.543 145.797 59.3008ZM159.965 16.0234C157.645 16.0234 155.746 16.8438 154.27 18.4844C152.816 20.125 152.09 22.1172 152.09 24.4609C152.09 27.0859 152.793 29.2656 154.199 31C155.629 32.7109 157.551 33.5664 159.965 33.5664C162.332 33.5664 164.184 32.7344 165.52 31.0703C166.855 29.3828 167.523 27.1797 167.523 24.4609C167.523 22.1172 166.797 20.125 165.344 18.4844C163.914 16.8438 162.121 16.0234 159.965 16.0234ZM203.77 17.7812C202.316 16.7734 200.852 16.2695 199.375 16.2695C197.008 16.2695 194.934 17.3594 193.152 19.5391C191.395 21.7188 190.516 24.3438 190.516 27.4141V49H183.836V11.3477H190.516V17.3594C192.953 12.8828 196.574 10.6445 201.379 10.6445C202.574 10.6445 204.297 10.8555 206.547 11.2773L203.77 17.7812ZM208.832 30.0859C208.832 24.2734 210.391 19.5859 213.508 16.0234C216.648 12.4375 220.773 10.6445 225.883 10.6445C231.273 10.6445 235.457 12.3672 238.434 15.8125C241.41 19.2344 242.898 23.9922 242.898 30.0859C242.898 36.1562 241.375 40.9492 238.328 44.4648C235.281 47.957 231.133 49.7031 225.883 49.7031C220.516 49.7031 216.332 47.9336 213.332 44.3945C210.332 40.8555 208.832 36.0859 208.832 30.0859ZM215.863 30.0859C215.863 39.5312 219.203 44.2539 225.883 44.2539C229 44.2539 231.438 42.9883 233.195 40.457C234.977 37.9258 235.867 34.4688 235.867 30.0859C235.867 20.7578 232.539 16.0938 225.883 16.0938C222.836 16.0938 220.398 17.3359 218.57 19.8203C216.766 22.3047 215.863 25.7266 215.863 30.0859ZM278.371 14.4062L275.066 19.1172C274.387 18.4375 273.18 17.793 271.445 17.1836C269.734 16.5742 268.047 16.2695 266.383 16.2695C262.75 16.2695 259.867 17.5469 257.734 20.1016C255.602 22.6328 254.535 26.1133 254.535 30.543C254.535 34.9492 255.625 38.3125 257.805 40.6328C259.984 42.9297 263.008 44.0781 266.875 44.0781C269.875 44.0781 272.898 42.918 275.945 40.5977L278.582 46.2227C274.996 48.543 270.555 49.7031 265.258 49.7031C260.125 49.7031 255.883 47.9805 252.531 44.5352C249.18 41.0898 247.504 36.4258 247.504 30.543C247.504 24.543 249.238 19.7266 252.707 16.0938C256.199 12.4609 260.969 10.6445 267.016 10.6445C268.961 10.6445 271.07 11.0547 273.344 11.875C275.617 12.6953 277.293 13.5391 278.371 14.4062ZM317.324 30.8242H290.184C290.184 35.2305 291.391 38.6172 293.805 40.9844C295.938 43.0469 298.68 44.0781 302.031 44.0781C305.852 44.0781 309.039 42.9648 311.594 40.7383L314.406 45.5547C313.375 46.5859 311.793 47.4766 309.66 48.2266C306.988 49.2109 304.012 49.7031 300.73 49.7031C295.996 49.7031 291.977 48.0977 288.672 44.8867C284.992 41.3477 283.152 36.5898 283.152 30.6133C283.152 24.4023 285.039 19.4219 288.812 15.6719C292.188 12.3203 296.184 10.6445 300.801 10.6445C306.168 10.6445 310.375 12.1562 313.422 15.1797C316.375 18.0859 317.852 21.9414 317.852 26.7461C317.852 28.2227 317.676 29.582 317.324 30.8242ZM301.117 16.2695C298.141 16.2695 295.645 17.2305 293.629 19.1523C291.707 20.9805 290.617 23.2539 290.359 25.9727H311.207C311.207 23.2773 310.363 21.0273 308.676 19.2227C306.824 17.2539 304.305 16.2695 301.117 16.2695ZM345.379 17.7812C343.926 16.7734 342.461 16.2695 340.984 16.2695C338.617 16.2695 336.543 17.3594 334.762 19.5391C333.004 21.7188 332.125 24.3438 332.125 27.4141V49H325.445V11.3477H332.125V17.3594C334.562 12.8828 338.184 10.6445 342.988 10.6445C344.184 10.6445 345.906 10.8555 348.156 11.2773L345.379 17.7812Z" fill="white"/>
</svg>
